<svg width="33" height="32" viewBox="0 0 33 32" fill="none" xmlns="http://www.w3.org/2000/svg">
<path fill-rule="evenodd" clip-rule="evenodd" d="M0.645996 17.7259C0.645996 18.0128 0.771125 26.1514 0.771125 26.4137C1.35536 32.9732 11.0322 32.7191 11.2462 26.1104C11.2462 23.7899 11.312 18.6243 11.3202 16.3449C11.3202 15.5999 11.4679 14.8622 11.7548 14.1742C12.0417 13.4861 12.4621 12.8614 12.9919 12.3357C13.5218 11.81 14.1506 11.3938 14.8423 11.1109C15.534 10.8281 16.275 10.6841 17.0227 10.6873C17.4424 10.6873 26.1565 10.6217 26.8312 10.6873C27.5254 10.7223 28.2195 10.6175 28.8721 10.3789C29.5246 10.1404 30.1222 9.77316 30.629 9.29917C31.1358 8.82518 31.5414 8.25419 31.8216 7.62036C32.1017 6.98653 32.2507 6.30289 32.2596 5.61036C32.2684 4.91782 32.137 4.23062 31.8731 3.58988C31.6093 2.94914 31.2184 2.36802 30.7239 1.88131C30.2294 1.3946 29.6414 1.0123 28.9952 0.757279C28.349 0.502259 27.6577 0.379765 26.9629 0.397126H18.4462C7.6009 0.388926 0.771125 4.19282 0.771125 13.4089L0.645996 17.7259Z" fill="#E9ECEF"/>
</svg>
