<svg width="32" height="31" viewBox="0 0 32 31" fill="none" xmlns="http://www.w3.org/2000/svg">
<path fill-rule="evenodd" clip-rule="evenodd" d="M31.2775 13.4329C31.2775 13.1459 31.2775 5.06955 31.2775 4.80717C30.6933 -1.78513 20.9999 -1.51455 20.8189 5.11055C20.8189 7.43097 20.7531 12.5966 20.7448 14.8842C20.7437 15.6285 20.5953 16.3654 20.3079 17.0524C20.0206 17.7395 19.6 18.3633 19.0702 18.8881C18.5405 19.4129 17.912 19.8284 17.2208 20.1108C16.5297 20.3931 15.7894 20.5368 15.0424 20.5336C14.6227 20.5336 5.90858 20.5992 5.23384 20.5336C3.86331 20.5162 2.54198 21.042 1.56052 21.9954C0.579063 22.9487 0.0178788 24.2515 0.000419829 25.6172C-0.0170391 26.9828 0.510658 28.2995 1.46742 29.2774C2.42419 30.2554 3.73165 30.8146 5.10218 30.832H13.6024C24.4477 30.832 31.2528 27.0111 31.2528 17.7786L31.2775 13.4329Z" fill="white"/>
</svg>
