<svg width="72" height="72" viewBox="0 0 72 72" fill="none" xmlns="http://www.w3.org/2000/svg">
<circle cx="36" cy="36" r="36" fill="none"/>
<path fill-rule="evenodd" clip-rule="evenodd" d="M41.2775 23.4329C41.2775 23.1459 41.2775 15.0696 41.2775 14.8072C40.6933 8.21487 30.9999 8.48545 30.8189 15.1105C30.8189 17.431 30.7531 22.5966 30.7448 24.8842C30.7437 25.6285 30.5953 26.3654 30.3079 27.0524C30.0206 27.7395 29.6 28.3633 29.0702 28.8881C28.5405 29.4129 27.912 29.8284 27.2208 30.1108C26.5297 30.3931 25.7894 30.5368 25.0424 30.5336C24.6227 30.5336 15.9086 30.5992 15.2338 30.5336C13.8633 30.5162 12.542 31.042 11.5605 31.9954C10.5791 32.9487 10.0179 34.2515 10.0004 35.6172C9.98296 36.9828 10.5107 38.2995 11.4674 39.2774C12.4242 40.2554 13.7316 40.8146 15.1022 40.832H23.6024C34.4477 40.832 41.2528 37.0111 41.2528 27.7786L41.2775 23.4329Z" fill="#2BED8C"/>
<path fill-rule="evenodd" clip-rule="evenodd" d="M30.646 47.7259C30.646 48.0128 30.7711 56.1514 30.7711 56.4137C31.3554 62.9732 41.0322 62.7191 41.2462 56.1104C41.2462 53.7899 41.312 48.6243 41.3202 46.3449C41.3202 45.5999 41.4679 44.8622 41.7548 44.1742C42.0417 43.4861 42.4621 42.8614 42.9919 42.3357C43.5218 41.81 44.1506 41.3938 44.8423 41.1109C45.534 40.8281 46.275 40.6841 47.0227 40.6873C47.4424 40.6873 56.1565 40.6217 56.8312 40.6873C57.5254 40.7223 58.2195 40.6175 58.8721 40.3789C59.5246 40.1404 60.1222 39.7732 60.629 39.2992C61.1358 38.8252 61.5414 38.2542 61.8216 37.6204C62.1017 36.9865 62.2507 36.3029 62.2596 35.6104C62.2684 34.9178 62.137 34.2306 61.8731 33.5899C61.6093 32.9491 61.2184 32.368 60.7239 31.8813C60.2294 31.3946 59.6414 31.0123 58.9952 30.7573C58.349 30.5023 57.6577 30.3798 56.9629 30.3971H48.4462C37.6009 30.3889 30.7711 34.1928 30.7711 43.4089L30.646 47.7259Z" fill="#F4A3EC"/>
</svg>
