<svg width="320" height="72" viewBox="0 0 320 72" fill="none" xmlns="http://www.w3.org/2000/svg">
<circle cx="36" cy="36" r="36" fill="#08CD57"/>
<path fill-rule="evenodd" clip-rule="evenodd" d="M41.2775 23.4329C41.2775 23.1459 41.2775 15.0696 41.2775 14.8072C40.6933 8.21487 30.9999 8.48545 30.8189 15.1105C30.8189 17.431 30.7531 22.5966 30.7448 24.8842C30.7437 25.6285 30.5953 26.3654 30.3079 27.0524C30.0206 27.7395 29.6 28.3633 29.0702 28.8881C28.5405 29.4129 27.912 29.8284 27.2208 30.1108C26.5297 30.3931 25.7894 30.5368 25.0424 30.5336C24.6227 30.5336 15.9086 30.5992 15.2338 30.5336C13.8633 30.5162 12.542 31.042 11.5605 31.9954C10.5791 32.9487 10.0179 34.2515 10.0004 35.6172C9.98296 36.9828 10.5107 38.2995 11.4674 39.2774C12.4242 40.2554 13.7316 40.8146 15.1022 40.832H23.6024C34.4477 40.832 41.2528 37.0111 41.2528 27.7786L41.2775 23.4329Z" fill="white"/>
<path fill-rule="evenodd" clip-rule="evenodd" d="M30.646 47.7259C30.646 48.0128 30.7711 56.1514 30.7711 56.4137C31.3554 62.9732 41.0322 62.7191 41.2462 56.1104C41.2462 53.7899 41.312 48.6243 41.3202 46.3449C41.3202 45.5999 41.4679 44.8622 41.7548 44.1742C42.0417 43.4861 42.4621 42.8614 42.9919 42.3357C43.5218 41.81 44.1506 41.3938 44.8423 41.1109C45.534 40.8281 46.275 40.6841 47.0227 40.6873C47.4424 40.6873 56.1565 40.6217 56.8312 40.6873C57.5254 40.7223 58.2195 40.6175 58.8721 40.3789C59.5246 40.1404 60.1222 39.7732 60.629 39.2992C61.1358 38.8252 61.5414 38.2542 61.8216 37.6204C62.1017 36.9865 62.2507 36.3029 62.2596 35.6104C62.2684 34.9178 62.137 34.2306 61.8731 33.5899C61.6093 32.9491 61.2184 32.368 60.7239 31.8813C60.2294 31.3946 59.6414 31.0123 58.9952 30.7573C58.349 30.5023 57.6577 30.3798 56.9629 30.3971H48.4462C37.6009 30.3889 30.7711 34.1928 30.7711 43.4089L30.646 47.7259Z" fill="#E9ECEF"/>
<path d="M99.6463 18.0909H107.385L117.749 43.3864H118.158L128.521 18.0909H136.26V53H130.192V29.017H129.868L120.22 52.8977H115.686L106.038 28.9659H105.714V53H99.6463V18.0909ZM146.709 62.8182C145.868 62.8182 145.089 62.75 144.374 62.6136C143.669 62.4886 143.107 62.3409 142.686 62.1705L144.118 57.3636C145.016 57.625 145.817 57.75 146.521 57.7386C147.226 57.7273 147.845 57.5057 148.379 57.0739C148.925 56.6534 149.385 55.9489 149.76 54.9602L150.288 53.5455L140.794 26.8182H147.339L153.374 46.5909H153.646L159.697 26.8182H166.26L155.777 56.1705C155.288 57.5568 154.641 58.7443 153.834 59.733C153.027 60.733 152.038 61.4943 150.868 62.017C149.709 62.5511 148.322 62.8182 146.709 62.8182ZM179.355 53.4602C177.298 53.4602 175.457 52.9318 173.832 51.875C172.207 50.8182 170.923 49.2841 169.98 47.2727C169.037 45.2614 168.565 42.8182 168.565 39.9432C168.565 37.0341 169.043 34.5795 169.997 32.5795C170.963 30.5682 172.264 29.0511 173.901 28.0284C175.537 26.9943 177.361 26.4773 179.372 26.4773C180.906 26.4773 182.168 26.7386 183.156 27.2614C184.145 27.7727 184.929 28.392 185.509 29.1193C186.088 29.8352 186.537 30.5114 186.855 31.1477H187.111V18.0909H193.298V53H187.23V48.875H186.855C186.537 49.5114 186.077 50.1875 185.474 50.9034C184.872 51.608 184.077 52.2102 183.088 52.7102C182.099 53.2102 180.855 53.4602 179.355 53.4602ZM181.077 48.3977C182.384 48.3977 183.497 48.0455 184.418 47.3409C185.338 46.625 186.037 45.6307 186.514 44.358C186.991 43.0852 187.23 41.6023 187.23 39.9091C187.23 38.2159 186.991 36.7443 186.514 35.4943C186.048 34.2443 185.355 33.2727 184.435 32.5795C183.526 31.8864 182.406 31.5398 181.077 31.5398C179.702 31.5398 178.554 31.8977 177.634 32.6136C176.713 33.3295 176.02 34.3182 175.554 35.5795C175.088 36.8409 174.855 38.2841 174.855 39.9091C174.855 41.5455 175.088 43.0057 175.554 44.2898C176.031 45.5625 176.73 46.5682 177.651 47.3068C178.582 48.0341 179.724 48.3977 181.077 48.3977ZM211.294 53.5114C208.737 53.5114 206.521 52.9489 204.646 51.8239C202.771 50.6989 201.317 49.125 200.283 47.1023C199.26 45.0795 198.749 42.7159 198.749 40.0114C198.749 37.3068 199.26 34.9375 200.283 32.9034C201.317 30.8693 202.771 29.2898 204.646 28.1648C206.521 27.0398 208.737 26.4773 211.294 26.4773C213.851 26.4773 216.067 27.0398 217.942 28.1648C219.817 29.2898 221.266 30.8693 222.288 32.9034C223.322 34.9375 223.839 37.3068 223.839 40.0114C223.839 42.7159 223.322 45.0795 222.288 47.1023C221.266 49.125 219.817 50.6989 217.942 51.8239C216.067 52.9489 213.851 53.5114 211.294 53.5114ZM211.328 48.5682C212.714 48.5682 213.874 48.1875 214.805 47.4261C215.737 46.6534 216.43 45.6193 216.885 44.3239C217.351 43.0284 217.584 41.5852 217.584 39.9943C217.584 38.392 217.351 36.9432 216.885 35.6477C216.43 34.3409 215.737 33.3011 214.805 32.5284C213.874 31.7557 212.714 31.3693 211.328 31.3693C209.908 31.3693 208.726 31.7557 207.783 32.5284C206.851 33.3011 206.152 34.3409 205.686 35.6477C205.232 36.9432 205.004 38.392 205.004 39.9943C205.004 41.5852 205.232 43.0284 205.686 44.3239C206.152 45.6193 206.851 46.6534 207.783 47.4261C208.726 48.1875 209.908 48.5682 211.328 48.5682ZM240.497 53.5114C237.884 53.5114 235.639 52.9375 233.764 51.7898C231.901 50.642 230.463 49.0568 229.452 47.0341C228.452 45 227.952 42.6591 227.952 40.0114C227.952 37.3523 228.463 35.0057 229.486 32.9716C230.509 30.9261 231.952 29.3352 233.815 28.1989C235.69 27.0511 237.906 26.4773 240.463 26.4773C242.588 26.4773 244.469 26.8693 246.105 27.6534C247.753 28.4261 249.065 29.5227 250.043 30.9432C251.02 32.3523 251.577 34 251.713 35.8864H245.815C245.577 34.625 245.009 33.5739 244.111 32.733C243.224 31.8807 242.037 31.4545 240.548 31.4545C239.287 31.4545 238.179 31.7955 237.224 32.4773C236.27 33.1477 235.526 34.1136 234.991 35.375C234.469 36.6364 234.207 38.1477 234.207 39.9091C234.207 41.6932 234.469 43.2273 234.991 44.5114C235.514 45.7841 236.247 46.767 237.19 47.4602C238.145 48.142 239.264 48.483 240.548 48.483C241.457 48.483 242.27 48.3125 242.986 47.9716C243.713 47.6193 244.321 47.1136 244.81 46.4545C245.298 45.7955 245.634 44.9943 245.815 44.0511H251.713C251.565 45.9034 251.02 47.5455 250.077 48.9773C249.134 50.3977 247.849 51.5114 246.224 52.3182C244.599 53.1136 242.69 53.5114 240.497 53.5114ZM269.854 26.8182V31.5909H254.803V26.8182H269.854ZM258.518 20.5455H264.689V45.125C264.689 45.9545 264.814 46.5909 265.064 47.0341C265.325 47.4659 265.666 47.7614 266.087 47.9205C266.507 48.0795 266.973 48.1591 267.484 48.1591C267.871 48.1591 268.223 48.1307 268.541 48.0739C268.871 48.017 269.121 47.9659 269.291 47.9205L270.331 52.7443C270.001 52.858 269.53 52.983 268.916 53.1193C268.314 53.2557 267.575 53.3352 266.7 53.358C265.155 53.4034 263.763 53.1705 262.524 52.6591C261.286 52.1364 260.303 51.3295 259.575 50.2386C258.859 49.1477 258.507 47.7841 258.518 46.1477V20.5455ZM286.153 53.5114C283.597 53.5114 281.381 52.9489 279.506 51.8239C277.631 50.6989 276.176 49.125 275.142 47.1023C274.119 45.0795 273.608 42.7159 273.608 40.0114C273.608 37.3068 274.119 34.9375 275.142 32.9034C276.176 30.8693 277.631 29.2898 279.506 28.1648C281.381 27.0398 283.597 26.4773 286.153 26.4773C288.71 26.4773 290.926 27.0398 292.801 28.1648C294.676 29.2898 296.125 30.8693 297.148 32.9034C298.182 34.9375 298.699 37.3068 298.699 40.0114C298.699 42.7159 298.182 45.0795 297.148 47.1023C296.125 49.125 294.676 50.6989 292.801 51.8239C290.926 52.9489 288.71 53.5114 286.153 53.5114ZM286.188 48.5682C287.574 48.5682 288.733 48.1875 289.665 47.4261C290.597 46.6534 291.29 45.6193 291.744 44.3239C292.21 43.0284 292.443 41.5852 292.443 39.9943C292.443 38.392 292.21 36.9432 291.744 35.6477C291.29 34.3409 290.597 33.3011 289.665 32.5284C288.733 31.7557 287.574 31.3693 286.188 31.3693C284.767 31.3693 283.585 31.7557 282.642 32.5284C281.71 33.3011 281.011 34.3409 280.545 35.6477C280.091 36.9432 279.864 38.392 279.864 39.9943C279.864 41.5852 280.091 43.0284 280.545 44.3239C281.011 45.6193 281.71 46.6534 282.642 47.4261C283.585 48.1875 284.767 48.5682 286.188 48.5682ZM303.936 53V26.8182H309.919V31.1818H310.192C310.669 29.6705 311.487 28.5057 312.646 27.6875C313.817 26.858 315.152 26.4432 316.652 26.4432C316.993 26.4432 317.374 26.4602 317.794 26.4943C318.226 26.517 318.584 26.5568 318.868 26.6136V32.2898C318.607 32.1989 318.192 32.1193 317.624 32.0511C317.067 31.9716 316.527 31.9318 316.004 31.9318C314.879 31.9318 313.868 32.1761 312.97 32.6648C312.084 33.142 311.385 33.8068 310.874 34.6591C310.362 35.5114 310.107 36.4943 310.107 37.608V53H303.936Z" fill="#042310"/>
</svg>
